<svg width="48" height="48" viewBox="0 0 48 48" fill="none" xmlns="http://www.w3.org/2000/svg">
<g filter="url(#filter0_d_3320_5118)">
<path d="M2 9C2 4.58172 5.58172 1 10 1H38C42.4183 1 46 4.58172 46 9V37C46 41.4183 42.4183 45 38 45H10C5.58172 45 2 41.4183 2 37V9Z" fill="#F3B3C0"/>
<path d="M10 1.5H38C42.1421 1.5 45.5 4.85786 45.5 9V37C45.5 41.1421 42.1421 44.5 38 44.5H10C5.85786 44.5 2.5 41.1421 2.5 37V9C2.5 4.85786 5.85786 1.5 10 1.5Z" stroke="#D4D4D4"/>
<path d="M21.0833 14.6667C21.0833 14.174 20.9123 13.7212 20.6263 13.3645C20.5307 13.2452 20.4222 13.1367 20.303 13.041C19.9462 12.7547 19.4931 12.5833 19 12.5833C17.8494 12.5833 16.9167 13.5161 16.9167 14.6667C16.9167 15.8173 17.8494 16.75 19 16.75C20.1506 16.75 21.0833 15.8173 21.0833 14.6667ZM23.5833 14.6667C23.5833 17.198 21.5313 19.25 19 19.25C17.7318 19.25 16.5838 18.7349 15.754 17.9025C14.9276 17.0735 14.4167 15.9297 14.4167 14.6667C14.4167 12.1354 16.4687 10.0833 19 10.0833C20.7892 10.0833 22.3389 11.1085 23.0938 12.6035C23.407 13.2236 23.5833 13.9246 23.5833 14.6667Z" fill="#0A0A0A"/>
<path d="M7.75 36.3334V21.3333C7.75 20.9365 7.93854 20.5631 8.25781 20.3275L15.2581 15.1615C15.8136 14.7515 16.5962 14.8697 17.0062 15.4251C17.4155 15.9805 17.2977 16.7634 16.7425 17.1732L15.754 17.9025L10.25 21.9632V23.4167V25.9167V30.0834V32.5834V36.3334C10.25 36.5493 10.3171 36.6315 10.3428 36.6572C10.3685 36.6829 10.4507 36.75 10.6667 36.75H37.3333C37.5493 36.75 37.6315 36.6829 37.6572 36.6572C37.6829 36.6315 37.75 36.5493 37.75 36.3334V21.3333C37.75 20.7771 37.5295 19.9369 36.9964 18.8708C36.4747 17.8275 35.6987 16.6583 34.7064 15.4675C32.8584 13.2499 30.3218 11.0361 27.4375 9.46649L23.0938 12.6035L22.0648 13.3467C21.6252 13.664 21.0491 13.6543 20.6263 13.3645C20.5108 13.2853 20.4067 13.1852 20.32 13.0651C20.3142 13.0571 20.3086 13.0491 20.303 13.041C19.9196 12.4833 20.05 11.7188 20.6016 11.3203L26.6009 6.98602L26.7474 6.89487C27.1009 6.70737 27.5274 6.70002 27.8916 6.88185C31.3994 8.63577 34.4488 11.2523 36.627 13.8659C37.7176 15.1747 38.6087 16.5061 39.2327 17.7542C39.8453 18.9796 40.25 20.2231 40.25 21.3333V36.3334C40.25 37.1174 39.9824 37.8672 39.4248 38.4248C38.8672 38.9825 38.1174 39.25 37.3333 39.25H10.6667C9.88261 39.25 9.13284 38.9825 8.5752 38.4248C8.01756 37.8672 7.75 37.1174 7.75 36.3334Z" fill="#0A0A0A"/>
<path d="M30.6667 23.4167C31.357 23.4167 31.9167 23.9763 31.9167 24.6667C31.9167 25.357 31.357 25.9167 30.6667 25.9167H10.25H9C8.30964 25.9167 7.75 25.357 7.75 24.6667C7.75 23.9763 8.30964 23.4167 9 23.4167H10.25H30.6667Z" fill="#0A0A0A"/>
<path d="M30.6667 30.0834C31.357 30.0834 31.9167 30.643 31.9167 31.3334C31.9167 32.0237 31.357 32.5834 30.6667 32.5834H10.25H9C8.30964 32.5834 7.75 32.0237 7.75 31.3334C7.75 30.643 8.30964 30.0834 9 30.0834H10.25H30.6667Z" fill="#0A0A0A"/>
<path d="M21.0833 14.6667C21.0833 14.174 20.9123 13.7212 20.6263 13.3645C20.5108 13.2853 20.4067 13.1852 20.32 13.0651C20.3142 13.0571 20.3086 13.0491 20.303 13.041C19.9462 12.7547 19.4931 12.5833 19 12.5833C17.8494 12.5833 16.9167 13.5161 16.9167 14.6667C16.9167 15.8173 17.8494 16.75 19 16.75C20.1506 16.75 21.0833 15.8173 21.0833 14.6667Z" fill="#D4637A"/>
<path d="M23.5833 14.6667C23.5833 17.198 21.5313 19.25 19 19.25C17.7318 19.25 16.5838 18.7349 15.754 17.9025L10.25 21.9632V23.4167H30.6667C31.357 23.4167 31.9167 23.9763 31.9167 24.6667C31.9167 25.357 31.357 25.9167 30.6667 25.9167H10.25V30.0834H30.6667C31.357 30.0834 31.9167 30.643 31.9167 31.3334C31.9167 32.0237 31.357 32.5834 30.6667 32.5834H10.25V36.3334C10.25 36.5493 10.3171 36.6315 10.3428 36.6572C10.3685 36.6829 10.4507 36.75 10.6667 36.75H37.3333C37.5493 36.75 37.6315 36.6829 37.6572 36.6572C37.6829 36.6315 37.75 36.5493 37.75 36.3334V21.3333C37.75 20.7771 37.5295 19.9369 36.9964 18.8708C36.4747 17.8275 35.6987 16.6583 34.7064 15.4675C32.8584 13.2499 30.3218 11.0361 27.4375 9.46649L23.0938 12.6035C23.407 13.2236 23.5833 13.9246 23.5833 14.6667Z" fill="white"/>
</g>
<defs>
<filter id="filter0_d_3320_5118" x="0" y="0" width="48" height="48" filterUnits="userSpaceOnUse" color-interpolation-filters="sRGB">
<feFlood flood-opacity="0" result="BackgroundImageFix"/>
<feColorMatrix in="SourceAlpha" type="matrix" values="0 0 0 0 0 0 0 0 0 0 0 0 0 0 0 0 0 0 127 0" result="hardAlpha"/>
<feOffset dy="1"/>
<feGaussianBlur stdDeviation="1"/>
<feComposite in2="hardAlpha" operator="out"/>
<feColorMatrix type="matrix" values="0 0 0 0 0 0 0 0 0 0 0 0 0 0 0 0 0 0 0.05 0"/>
<feBlend mode="normal" in2="BackgroundImageFix" result="effect1_dropShadow_3320_5118"/>
<feBlend mode="normal" in="SourceGraphic" in2="effect1_dropShadow_3320_5118" result="shape"/>
</filter>
</defs>
</svg>
